<svg xmlns="http://www.w3.org/2000/svg" viewBox="0 0 400 400" width="400" height="400">
  <defs>
    <radialGradient id="bg" cx="50%" cy="40%" r="70%">
      <stop offset="0%" stop-color="#3a2470"/>
      <stop offset="100%" stop-color="#0e0830"/>
    </radialGradient>
    <radialGradient id="coin" cx="40%" cy="35%" r="75%">
      <stop offset="0%" stop-color="#ffe79a"/>
      <stop offset="55%" stop-color="#f0bd3a"/>
      <stop offset="100%" stop-color="#8a5a08"/>
    </radialGradient>
    <linearGradient id="die" x1="0%" y1="0%" x2="0%" y2="100%">
      <stop offset="0%" stop-color="#ffffff"/>
      <stop offset="100%" stop-color="#cfd2dc"/>
    </linearGradient>
  </defs>

  <rect width="400" height="400" rx="64" fill="url(#bg)"/>

  <g fill="#fff">
    <circle cx="55" cy="70" r="2"/>
    <circle cx="350" cy="55" r="1.6"/>
    <circle cx="380" cy="180" r="1.2"/>
    <circle cx="40" cy="220" r="1.4"/>
    <circle cx="330" cy="350" r="2"/>
    <circle cx="80" cy="360" r="1.6"/>
    <circle cx="200" cy="30" r="1.2"/>
    <circle cx="160" cy="70" r="1"/>
    <circle cx="280" cy="100" r="1.2"/>
  </g>

  <g transform="translate(295 220)">
    <ellipse cx="6" cy="14" rx="88" ry="18" fill="#000" opacity="0.35"/>
    <circle r="88" fill="url(#coin)"/>
    <circle r="74" fill="none" stroke="#7a5208" stroke-width="3" opacity="0.7"/>
    <path d="M0 -52 L12 -16 L50 -16 L19 6 L32 42 L0 20 L-32 42 L-19 6 L-50 -16 L-12 -16 Z"
          fill="#fff8d4" stroke="#7a5208" stroke-width="2" stroke-linejoin="round"/>
  </g>

  <g transform="translate(110 175) rotate(-16)">
    <rect x="-46" y="-46" width="92" height="92" rx="14" fill="url(#die)" stroke="#8a8fa0" stroke-width="3"/>
    <g fill="#1a1140">
      <circle cx="-22" cy="-22" r="7"/>
      <circle cx="22"  cy="-22" r="7"/>
      <circle cx="0"   cy="0"   r="7"/>
      <circle cx="-22" cy="22"  r="7"/>
      <circle cx="22"  cy="22"  r="7"/>
    </g>
  </g>

  <g transform="translate(165 245) rotate(12)">
    <rect x="-54" y="-54" width="108" height="108" rx="16" fill="url(#die)" stroke="#8a8fa0" stroke-width="3"/>
    <g fill="#1a1140">
      <circle cx="-28" cy="-30" r="8"/>
      <circle cx="28"  cy="-30" r="8"/>
      <circle cx="-28" cy="0"   r="8"/>
      <circle cx="28"  cy="0"   r="8"/>
      <circle cx="-28" cy="30"  r="8"/>
      <circle cx="28"  cy="30"  r="8"/>
    </g>
  </g>
</svg>
